Coordinates
version=1
nRows=11
nColumns=36
inDegrees=yes

Units are S.I. units (second, meters, Newtons, ...)
If the header above contains a line with 'inDegrees', this indicates whether rotational values are in degrees (yes) or radians (no).

endheader
time	pelvis_tilt	pelvis_list	pelvis_rotation	pelvis_tx	pelvis_ty	pelvis_tz	hip_flexion_r	hip_adduction_r	hip_rotation_r	knee_angle_r	knee_angle_r_beta	ankle_angle_r	subtalar_angle_r	mtp_angle_r	hip_flexion_l	hip_adduction_l	hip_rotation_l	knee_angle_l	knee_angle_l_beta	ankle_angle_l	subtalar_angle_l	mtp_angle_l	lumbar_extension	lumbar_bending	lumbar_rotation	arm_flex_r	arm_add_r	arm_rot_r	elbow_flex_r	pro_sup_r	arm_flex_l	arm_add_l	arm_rot_l	elbow_flex_l	pro_sup_l
      2.23333330	      2.19526341	      1.63154449	     -9.10527746	      0.22668888	      0.84819244	     -0.01678888	     25.00951196	      1.67264314	     -0.06214157	     58.45192543	      1.02017855	     34.76923335	     -2.76728205	     -7.49998851	     61.79933129	    -10.96870509	     12.44740608	     39.77539872	      0.69421167	      0.63189117	     -8.60075307	     -7.49998851	    -15.94585729	     13.19623254	     -4.73796906	     38.04267084	     -7.20332615	     67.63132404	    123.31662111	     88.82169673	     23.42508826	     -1.79265647	     65.03413550	    132.77770438	    105.53503451
      2.25000000	      2.45544373	      1.63961567	     -9.77824648	      0.22680967	      0.85234598	     -0.01587491	     24.73859910	      1.11215388	     -0.14366817	     58.16606848	      1.01518941	     35.11171145	     -0.72818354	     -7.49998875	     62.01833165	    -11.82668202	     12.55136406	     40.02072690	      0.69849345	     -0.13591996	     -8.15804708	     -7.49998875	    -15.54716502	     13.45929883	     -6.08957958	     35.89996774	     -7.84139613	     67.26084296	    123.48790546	     88.80187270	     22.66876984	     -2.21600072	     63.70815140	    133.08587311	    105.74534514
      2.26666670	      2.49237871	      1.50458174	    -10.45620493	      0.22101149	      0.85563633	     -0.01945825	     24.19059434	      0.62818717	     -0.35348565	     57.12194001	      0.99696593	     35.02223442	      0.69976798	     -7.49998901	     62.10991023	    -12.89653265	     12.54064935	     40.18993718	      0.70144673	     -1.25793118	     -8.34920470	     -7.49998901	    -15.54551742	     14.11096266	     -5.81739176	     36.63342371	     -7.73163003	     67.45416797	    122.86751442	     88.89670985	     22.82284394	     -2.34088738	     63.07239259	    133.80967006	    105.99746086
      2.28333330	      3.00970298	      1.26562946	    -11.01829483	      0.21922810	      0.86543392	     -0.01983697	     22.85890260	      0.30242866	     -0.63864728	     55.30672278	      0.96528441	     34.15763977	      1.88159604	     -7.49998973	     61.19394164	    -13.81661604	     12.63648038	     39.63353599	      0.69173570	     -2.09113910	     -7.99874128	     -7.49998973	    -16.19165991	     14.67356164	     -5.07949201	     37.95080874	     -7.58165034	     68.98970543	    122.40607226	     86.79799443	     23.01472426	     -2.43212369	     63.24247447	    133.39648246	    103.38836418
      2.30000000	      4.03184308	      1.32984119	    -11.52902931	      0.21775551	      0.87265309	     -0.02001607	     20.93875064	     -0.10910509	     -0.53058869	     53.34838989	      0.93110505	     33.17603580	      2.36323053	     -7.49998998	     59.52398684	    -14.63949588	     12.17053101	     39.07034984	      0.68190624	     -2.45925057	     -7.53664304	     -7.49998998	    -16.42980170	     14.69267301	     -6.00247877	     36.46847893	     -7.94403880	     68.53594984	    121.68576146	     87.04180197	     22.30428925	     -2.58474892	     61.51120160	    132.75366045	    103.96957256
      2.31666670	      4.14393058	      1.50804961	    -12.02511154	      0.20919231	      0.87103142	     -0.02334560	     20.86279885	     -0.62734077	     -0.87821984	     52.56624709	      0.91745409	     32.56063342	      2.68447119	     -7.49999006	     59.59009598	    -15.75453458	     11.72587570	     39.40399488	      0.68772945	     -3.33686773	     -7.49217137	     -7.49999006	    -16.15674372	     14.71390962	     -6.58406428	     36.38318163	     -8.04430923	     68.50848573	    121.79608563	     87.01469193	     23.40911963	     -2.58468773	     61.00848682	    132.88764761	    103.83064264
      2.33333330	      5.02406461	      1.78062951	    -12.22232365	      0.20926876	      0.88123110	     -0.02385189	     19.48925476	     -1.03119123	     -0.42816720	     51.23859057	      0.89428211	     31.77331701	      2.53497945	     -7.49998994	     58.56401335	    -15.81697378	     11.26788145	     40.07177488	      0.69938441	     -5.36155117	     -8.95658647	     -7.49998994	    -17.25626046	     14.63283649	     -6.21221474	     38.08878825	     -7.29716086	     69.07155062	    121.81706478	     85.62619617	     25.88716175	     -3.39360599	     60.27854239	    133.09582175	    103.00739927
      2.35000000	      5.76162148	      2.27749500	    -12.14155506	      0.21809187	      0.88443750	     -0.02574519	     17.81375934	     -1.64648966	      0.00756884	     49.67216576	      0.86694284	     31.51660278	      2.17151255	     -7.49999021	     57.79552341	    -15.54618736	     10.36127540	     40.87844712	      0.71346350	     -6.08867392	    -10.05176999	     -7.49999021	    -17.34059760	     14.12665866	     -6.43947941	     38.33376996	     -6.60801377	     69.01020275	    122.43548820	     85.92180024	     26.27146063	     -3.53267135	     59.67205781	    132.43709794	    103.39306148
      2.36666670	      5.74961710	      2.85876908	    -11.64177201	      0.21892265	      0.88994203	     -0.02563462	     17.07983053	     -2.09411848	      0.37641598	     48.51057658	      0.84666928	     31.25068148	      1.48440980	     -7.49999025	     57.63397405	    -15.03601914	      9.58308389	     41.22621101	      0.71953312	     -6.26623629	    -10.47251735	     -7.49999025	    -16.76558606	     13.84702547	     -6.48847066	     38.29260961	     -6.38900476	     69.23085905	    123.11533943	     85.98816660	     26.19107463	     -3.32746771	     59.74506106	    132.72036879	    103.44696112
      2.38333330	      6.59462811	      3.82895679	    -11.22106700	      0.21936922	      0.89604648	     -0.02483329	     14.99180433	     -2.92423388	      0.98078815	     46.29339282	      0.80797213	     29.53435834	     -0.56559819	     -7.49999150	     56.03412627	    -14.17494586	      8.40298972	     40.17647268	      0.70121173	     -7.97765998	    -12.31302021	     -7.49999150	    -16.97959075	     12.43369446	     -6.51943919	     38.09534350	     -6.50541468	     69.27826619	    124.49123058	     85.02887585	     26.25725363	     -3.11540019	     59.93608898	    133.02881565	    101.45503960
      2.40000000	      6.80332743	      4.57965563	    -10.85073584	      0.21904633	      0.89237796	     -0.02494683	     13.78171797	     -3.44292443	      0.96592978	     44.59028590	      0.77824730	     28.18855308	     -1.80741218	     -7.49999305	     55.54984363	    -13.58042321	      7.51985408	     39.42567477	      0.68810783	     -8.72030427	    -12.97441523	     -7.49999305	    -16.20000341	     11.41753936	     -6.47643288	     37.99618189	     -6.21896240	     67.97859753	    124.25536671	     88.17477984	     26.12088933	     -2.93273860	     59.07351535	    133.64096230	    104.40720446
